{
    "asset" : {
        "generator" : "Khronos glTF Blender I/O v1.6.16",
        "version" : "2.0"
    },
    "scene" : 0,
    "scenes" : [
        {
            "name" : "Scene",
            "nodes" : [
                0,
                1,
                2
            ]
        }
    ],
    "nodes" : [
        {
            "name" : "Light",
            "rotation" : [
                0.16907575726509094,
                0.7558803558349609,
                -0.27217137813568115,
                0.570947527885437
            ],
            "translation" : [
                4.076245307922363,
                5.903861999511719,
                -1.0054539442062378
            ]
        },
        {
            "name" : "Camera",
            "rotation" : [
                0.483536034822464,
                0.33687159419059753,
                -0.20870360732078552,
                0.7804827094078064
            ],
            "translation" : [
                7.358891487121582,
                4.958309173583984,
                6.925790786743164
            ]
        },
        {
            "mesh" : 0,
            "name" : "tinyM",
            "rotation" : [
                0.7071068286895752,
                0,
                0,
                0.7071067094802856
            ]
        }
    ],
    "materials" : [
        {
            "doubleSided" : true,
            "name" : "_5",
            "pbrMetallicRoughness" : {
                "baseColorFactor" : [
                    0.12156900018453598,
                    0.47843098640441895,
                    0.4000000059604645,
                    1
                ],
                "metallicFactor" : 0
            }
        },
        {
            "doubleSided" : true,
            "name" : "Color_000",
            "pbrMetallicRoughness" : {
                "metallicFactor" : 0
            }
        },
        {
            "doubleSided" : true,
            "name" : "Color_001",
            "pbrMetallicRoughness" : {
                "baseColorFactor" : [
                    0.8862749934196472,
                    0.8862749934196472,
                    0.8862749934196472,
                    1
                ],
                "metallicFactor" : 0
            }
        },
        {
            "doubleSided" : true,
            "name" : "Color_003",
            "pbrMetallicRoughness" : {
                "baseColorFactor" : [
                    0.6666669845581055,
                    0.6666669845581055,
                    0.6666669845581055,
                    1
                ],
                "metallicFactor" : 0
            }
        },
        {
            "doubleSided" : true,
            "name" : "FrontColor",
            "pbrMetallicRoughness" : {
                "metallicFactor" : 0
            }
        },
        {
            "doubleSided" : true,
            "name" : "Lisanne_Hammer",
            "pbrMetallicRoughness" : {
                "baseColorFactor" : [
                    0.23529399931430817,
                    0.2509799897670746,
                    0.274509996175766,
                    1
                ],
                "metallicFactor" : 0
            }
        },
        {
            "doubleSided" : true,
            "name" : "_1",
            "pbrMetallicRoughness" : {
                "baseColorFactor" : [
                    0.24705900251865387,
                    0.24705900251865387,
                    0.24705900251865387,
                    1
                ],
                "metallicFactor" : 0
            }
        },
        {
            "doubleSided" : true,
            "name" : "Color_A05",
            "pbrMetallicRoughness" : {
                "baseColorFactor" : [
                    1,
                    0,
                    0,
                    1
                ],
                "metallicFactor" : 0
            }
        },
        {
            "doubleSided" : true,
            "name" : "_Blinds_Cloth_Horizontal_1",
            "pbrMetallicRoughness" : {
                "baseColorFactor" : [
                    0.9882349967956543,
                    0.9450979828834534,
                    0,
                    1
                ],
                "metallicFactor" : 0
            }
        },
        {
            "doubleSided" : true,
            "name" : "Color_G05",
            "pbrMetallicRoughness" : {
                "baseColorFactor" : [
                    0,
                    1,
                    0,
                    1
                ],
                "metallicFactor" : 0
            }
        },
        {
            "doubleSided" : true,
            "name" : "Color_006",
            "pbrMetallicRoughness" : {
                "baseColorFactor" : [
                    0.33725500106811523,
                    0.33725500106811523,
                    0.33725500106811523,
                    1
                ],
                "metallicFactor" : 0
            }
        }
    ],
    "meshes" : [
        {
            "name" : "tinyM",
            "primitives" : [
                {
                    "attributes" : {
                        "POSITION" : 0,
                        "NORMAL" : 1,
                        "TEXCOORD_0" : 2
                    },
                    "indices" : 3,
                    "material" : 0
                },
                {
                    "attributes" : {
                        "POSITION" : 4,
                        "NORMAL" : 5,
                        "TEXCOORD_0" : 6
                    },
                    "indices" : 7,
                    "material" : 1
                },
                {
                    "attributes" : {
                        "POSITION" : 8,
                        "NORMAL" : 9,
                        "TEXCOORD_0" : 10
                    },
                    "indices" : 11,
                    "material" : 2
                },
                {
                    "attributes" : {
                        "POSITION" : 12,
                        "NORMAL" : 13,
                        "TEXCOORD_0" : 14
                    },
                    "indices" : 15,
                    "material" : 3
                },
                {
                    "attributes" : {
                        "POSITION" : 16,
                        "NORMAL" : 17,
                        "TEXCOORD_0" : 18
                    },
                    "indices" : 19,
                    "material" : 4
                },
                {
                    "attributes" : {
                        "POSITION" : 20,
                        "NORMAL" : 21,
                        "TEXCOORD_0" : 22
                    },
                    "indices" : 23,
                    "material" : 5
                },
                {
                    "attributes" : {
                        "POSITION" : 24,
                        "NORMAL" : 25,
                        "TEXCOORD_0" : 26
                    },
                    "indices" : 27,
                    "material" : 6
                },
                {
                    "attributes" : {
                        "POSITION" : 28,
                        "NORMAL" : 29,
                        "TEXCOORD_0" : 30
                    },
                    "indices" : 31,
                    "material" : 7
                },
                {
                    "attributes" : {
                        "POSITION" : 32,
                        "NORMAL" : 33,
                        "TEXCOORD_0" : 34
                    },
                    "indices" : 35,
                    "material" : 8
                },
                {
                    "attributes" : {
                        "POSITION" : 36,
                        "NORMAL" : 37,
                        "TEXCOORD_0" : 38
                    },
                    "indices" : 39,
                    "material" : 9
                },
                {
                    "attributes" : {
                        "POSITION" : 40,
                        "NORMAL" : 41,
                        "TEXCOORD_0" : 42
                    },
                    "indices" : 43,
                    "material" : 10
                }
            ]
        }
    ],
    "accessors" : [
        {
            "bufferView" : 0,
            "componentType" : 5126,
            "count" : 337,
            "max" : [
                36811.69921875,
                -14535.7998046875,
                -316.5570068359375
            ],
            "min" : [
                33906.80078125,
                -20375.400390625,
                -3614.699951171875
            ],
            "type" : "VEC3"
        },
        {
            "bufferView" : 1,
            "componentType" : 5126,
            "count" : 337,
            "type" : "VEC3"
        },
        {
            "bufferView" : 2,
            "componentType" : 5126,
            "count" : 337,
            "type" : "VEC2"
        },
        {
            "bufferView" : 3,
            "componentType" : 5123,
            "count" : 852,
            "type" : "SCALAR"
        },
        {
            "bufferView" : 4,
            "componentType" : 5126,
            "count" : 316,
            "max" : [
                36266.3984375,
                -9722.0302734375,
                -2064.699951171875
            ],
            "min" : [
                34775,
                -17705.30078125,
                -4373.2998046875
            ],
            "type" : "VEC3"
        },
        {
            "bufferView" : 5,
            "componentType" : 5126,
            "count" : 316,
            "type" : "VEC3"
        },
        {
            "bufferView" : 6,
            "componentType" : 5126,
            "count" : 316,
            "type" : "VEC2"
        },
        {
            "bufferView" : 7,
            "componentType" : 5123,
            "count" : 648,
            "type" : "SCALAR"
        },
        {
            "bufferView" : 8,
            "componentType" : 5126,
            "count" : 192,
            "max" : [
                36540.3984375,
                -14667.7998046875,
                -3737.719970703125
            ],
            "min" : [
                35630.8984375,
                -17105.5,
                -4647.27978515625
            ],
            "type" : "VEC3"
        },
        {
            "bufferView" : 9,
            "componentType" : 5126,
            "count" : 192,
            "type" : "VEC3"
        },
        {
            "bufferView" : 10,
            "componentType" : 5126,
            "count" : 192,
            "type" : "VEC2"
        },
        {
            "bufferView" : 11,
            "componentType" : 5123,
            "count" : 432,
            "type" : "SCALAR"
        },
        {
            "bufferView" : 12,
            "componentType" : 5126,
            "count" : 700,
            "max" : [
                36811.69921875,
                -9351.25,
                5.4846400858454825e-12
            ],
            "min" : [
                33906.80078125,
                -19996.30078125,
                -2593.989990234375
            ],
            "type" : "VEC3"
        },
        {
            "bufferView" : 13,
            "componentType" : 5126,
            "count" : 700,
            "type" : "VEC3"
        },
        {
            "bufferView" : 14,
            "componentType" : 5126,
            "count" : 700,
            "type" : "VEC2"
        },
        {
            "bufferView" : 15,
            "componentType" : 5123,
            "count" : 1344,
            "type" : "SCALAR"
        },
        {
            "bufferView" : 16,
            "componentType" : 5126,
            "count" : 382,
            "max" : [
                36780.3984375,
                -9421.33984375,
                -316.5570068359375
            ],
            "min" : [
                33958.6015625,
                -20375.400390625,
                -4369.89990234375
            ],
            "type" : "VEC3"
        },
        {
            "bufferView" : 17,
            "componentType" : 5126,
            "count" : 382,
            "type" : "VEC3"
        },
        {
            "bufferView" : 18,
            "componentType" : 5126,
            "count" : 382,
            "type" : "VEC2"
        },
        {
            "bufferView" : 19,
            "componentType" : 5123,
            "count" : 936,
            "type" : "SCALAR"
        },
        {
            "bufferView" : 20,
            "componentType" : 5126,
            "count" : 16,
            "max" : [
                36780.3984375,
                -14535.7998046875,
                6.497199913496621e-12
            ],
            "min" : [
                33958.6015625,
                -20375.400390625,
                -316.5570068359375
            ],
            "type" : "VEC3"
        },
        {
            "bufferView" : 21,
            "componentType" : 5126,
            "count" : 16,
            "type" : "VEC3"
        },
        {
            "bufferView" : 22,
            "componentType" : 5126,
            "count" : 16,
            "type" : "VEC2"
        },
        {
            "bufferView" : 23,
            "componentType" : 5123,
            "count" : 24,
            "type" : "SCALAR"
        },
        {
            "bufferView" : 24,
            "componentType" : 5126,
            "count" : 48,
            "max" : [
                36330,
                -14535.7998046875,
                -548.3389892578125
            ],
            "min" : [
                34555,
                -14535.7998046875,
                -1556.6400146484375
            ],
            "type" : "VEC3"
        },
        {
            "bufferView" : 25,
            "componentType" : 5126,
            "count" : 48,
            "type" : "VEC3"
        },
        {
            "bufferView" : 26,
            "componentType" : 5126,
            "count" : 48,
            "type" : "VEC2"
        },
        {
            "bufferView" : 27,
            "componentType" : 5123,
            "count" : 72,
            "type" : "SCALAR"
        },
        {
            "bufferView" : 28,
            "componentType" : 5126,
            "count" : 24,
            "max" : [
                34775,
                -9810.16015625,
                -2123.320068359375
            ],
            "min" : [
                34775,
                -9842.41015625,
                -2155.5400390625
            ],
            "type" : "VEC3"
        },
        {
            "bufferView" : 29,
            "componentType" : 5126,
            "count" : 24,
            "type" : "VEC3"
        },
        {
            "bufferView" : 30,
            "componentType" : 5126,
            "count" : 24,
            "type" : "VEC2"
        },
        {
            "bufferView" : 31,
            "componentType" : 5123,
            "count" : 66,
            "type" : "SCALAR"
        },
        {
            "bufferView" : 32,
            "componentType" : 5126,
            "count" : 24,
            "max" : [
                34775,
                -9730.6796875,
                -2123.320068359375
            ],
            "min" : [
                34775,
                -9762.9296875,
                -2155.5400390625
            ],
            "type" : "VEC3"
        },
        {
            "bufferView" : 33,
            "componentType" : 5126,
            "count" : 24,
            "type" : "VEC3"
        },
        {
            "bufferView" : 34,
            "componentType" : 5126,
            "count" : 24,
            "type" : "VEC2"
        },
        {
            "bufferView" : 35,
            "componentType" : 5123,
            "count" : 66,
            "type" : "SCALAR"
        },
        {
            "bufferView" : 36,
            "componentType" : 5126,
            "count" : 24,
            "max" : [
                34775,
                -9651.2001953125,
                -2123.320068359375
            ],
            "min" : [
                34775,
                -9683.4501953125,
                -2155.5400390625
            ],
            "type" : "VEC3"
        },
        {
            "bufferView" : 37,
            "componentType" : 5126,
            "count" : 24,
            "type" : "VEC3"
        },
        {
            "bufferView" : 38,
            "componentType" : 5126,
            "count" : 24,
            "type" : "VEC2"
        },
        {
            "bufferView" : 39,
            "componentType" : 5123,
            "count" : 66,
            "type" : "SCALAR"
        },
        {
            "bufferView" : 40,
            "componentType" : 5126,
            "count" : 103,
            "max" : [
                36092.30078125,
                -9351.25,
                5.4846400858454825e-12
            ],
            "min" : [
                34680.30078125,
                -11021.2998046875,
                -2193.830078125
            ],
            "type" : "VEC3"
        },
        {
            "bufferView" : 41,
            "componentType" : 5126,
            "count" : 103,
            "type" : "VEC3"
        },
        {
            "bufferView" : 42,
            "componentType" : 5126,
            "count" : 103,
            "type" : "VEC2"
        },
        {
            "bufferView" : 43,
            "componentType" : 5123,
            "count" : 273,
            "type" : "SCALAR"
        }
    ],
    "bufferViews" : [
        {
            "buffer" : 0,
            "byteLength" : 4044,
            "byteOffset" : 0
        },
        {
            "buffer" : 0,
            "byteLength" : 4044,
            "byteOffset" : 4044
        },
        {
            "buffer" : 0,
            "byteLength" : 2696,
            "byteOffset" : 8088
        },
        {
            "buffer" : 0,
            "byteLength" : 1704,
            "byteOffset" : 10784
        },
        {
            "buffer" : 0,
            "byteLength" : 3792,
            "byteOffset" : 12488
        },
        {
            "buffer" : 0,
            "byteLength" : 3792,
            "byteOffset" : 16280
        },
        {
            "buffer" : 0,
            "byteLength" : 2528,
            "byteOffset" : 20072
        },
        {
            "buffer" : 0,
            "byteLength" : 1296,
            "byteOffset" : 22600
        },
        {
            "buffer" : 0,
            "byteLength" : 2304,
            "byteOffset" : 23896
        },
        {
            "buffer" : 0,
            "byteLength" : 2304,
            "byteOffset" : 26200
        },
        {
            "buffer" : 0,
            "byteLength" : 1536,
            "byteOffset" : 28504
        },
        {
            "buffer" : 0,
            "byteLength" : 864,
            "byteOffset" : 30040
        },
        {
            "buffer" : 0,
            "byteLength" : 8400,
            "byteOffset" : 30904
        },
        {
            "buffer" : 0,
            "byteLength" : 8400,
            "byteOffset" : 39304
        },
        {
            "buffer" : 0,
            "byteLength" : 5600,
            "byteOffset" : 47704
        },
        {
            "buffer" : 0,
            "byteLength" : 2688,
            "byteOffset" : 53304
        },
        {
            "buffer" : 0,
            "byteLength" : 4584,
            "byteOffset" : 55992
        },
        {
            "buffer" : 0,
            "byteLength" : 4584,
            "byteOffset" : 60576
        },
        {
            "buffer" : 0,
            "byteLength" : 3056,
            "byteOffset" : 65160
        },
        {
            "buffer" : 0,
            "byteLength" : 1872,
            "byteOffset" : 68216
        },
        {
            "buffer" : 0,
            "byteLength" : 192,
            "byteOffset" : 70088
        },
        {
            "buffer" : 0,
            "byteLength" : 192,
            "byteOffset" : 70280
        },
        {
            "buffer" : 0,
            "byteLength" : 128,
            "byteOffset" : 70472
        },
        {
            "buffer" : 0,
            "byteLength" : 48,
            "byteOffset" : 70600
        },
        {
            "buffer" : 0,
            "byteLength" : 576,
            "byteOffset" : 70648
        },
        {
            "buffer" : 0,
            "byteLength" : 576,
            "byteOffset" : 71224
        },
        {
            "buffer" : 0,
            "byteLength" : 384,
            "byteOffset" : 71800
        },
        {
            "buffer" : 0,
            "byteLength" : 144,
            "byteOffset" : 72184
        },
        {
            "buffer" : 0,
            "byteLength" : 288,
            "byteOffset" : 72328
        },
        {
            "buffer" : 0,
            "byteLength" : 288,
            "byteOffset" : 72616
        },
        {
            "buffer" : 0,
            "byteLength" : 192,
            "byteOffset" : 72904
        },
        {
            "buffer" : 0,
            "byteLength" : 132,
            "byteOffset" : 73096
        },
        {
            "buffer" : 0,
            "byteLength" : 288,
            "byteOffset" : 73228
        },
        {
            "buffer" : 0,
            "byteLength" : 288,
            "byteOffset" : 73516
        },
        {
            "buffer" : 0,
            "byteLength" : 192,
            "byteOffset" : 73804
        },
        {
            "buffer" : 0,
            "byteLength" : 132,
            "byteOffset" : 73996
        },
        {
            "buffer" : 0,
            "byteLength" : 288,
            "byteOffset" : 74128
        },
        {
            "buffer" : 0,
            "byteLength" : 288,
            "byteOffset" : 74416
        },
        {
            "buffer" : 0,
            "byteLength" : 192,
            "byteOffset" : 74704
        },
        {
            "buffer" : 0,
            "byteLength" : 132,
            "byteOffset" : 74896
        },
        {
            "buffer" : 0,
            "byteLength" : 1236,
            "byteOffset" : 75028
        },
        {
            "buffer" : 0,
            "byteLength" : 1236,
            "byteOffset" : 76264
        },
        {
            "buffer" : 0,
            "byteLength" : 824,
            "byteOffset" : 77500
        },
        {
            "buffer" : 0,
            "byteLength" : 546,
            "byteOffset" : 78324
        }
    ],
    "buffers" : [
        {
            "byteLength" : 78872,
            "uri" : "data:application/octet-stream;base64,"
        }
    ]
}
